<svg xmlns="http://www.w3.org/2000/svg" width="1920" height="1360" viewBox="0 0 1920 1360" role="img" aria-labelledby="title desc">
  <title id="title">ScanZapp AI Platform Architecture</title>
  <desc id="desc">Detailed request and response architecture with separate horizontal lanes for data, food analysis, meal suggestions, and chatbot services.</desc>

  <defs>
    <linearGradient id="bg" x1="0" y1="0" x2="0" y2="1">
      <stop offset="0" stop-color="#f8fbff"/>
      <stop offset="1" stop-color="#ffffff"/>
    </linearGradient>
    <linearGradient id="blueHead" x1="0" y1="0" x2="1" y2="0">
      <stop offset="0" stop-color="#2563eb"/>
      <stop offset="1" stop-color="#0f4bcf"/>
    </linearGradient>
    <linearGradient id="greenHead" x1="0" y1="0" x2="1" y2="0">
      <stop offset="0" stop-color="#16a34a"/>
      <stop offset="1" stop-color="#087a35"/>
    </linearGradient>
    <linearGradient id="orangeHead" x1="0" y1="0" x2="1" y2="0">
      <stop offset="0" stop-color="#fb7a12"/>
      <stop offset="1" stop-color="#e85208"/>
    </linearGradient>
    <linearGradient id="purpleHead" x1="0" y1="0" x2="1" y2="0">
      <stop offset="0" stop-color="#7c3aed"/>
      <stop offset="1" stop-color="#5521a8"/>
    </linearGradient>
    <linearGradient id="redHead" x1="0" y1="0" x2="1" y2="0">
      <stop offset="0" stop-color="#ef4444"/>
      <stop offset="1" stop-color="#cf202f"/>
    </linearGradient>
    <linearGradient id="cyanHead" x1="0" y1="0" x2="1" y2="0">
      <stop offset="0" stop-color="#10a8cf"/>
      <stop offset="1" stop-color="#087fa8"/>
    </linearGradient>
    <filter id="shadow" x="-20%" y="-20%" width="140%" height="160%">
      <feDropShadow dx="0" dy="5" stdDeviation="7" flood-color="#0f172a" flood-opacity=".10"/>
    </filter>
    <marker id="arrowRequest" markerWidth="9" markerHeight="9" refX="8" refY="4.5" orient="auto" markerUnits="strokeWidth">
      <path d="M0,0 L9,4.5 L0,9 Z" fill="#2563eb"/>
    </marker>
    <marker id="arrowResponse" markerWidth="9" markerHeight="9" refX="8" refY="4.5" orient="auto" markerUnits="strokeWidth">
      <path d="M0,0 L9,4.5 L0,9 Z" fill="#64748b"/>
    </marker>
    <style>
      text { font-family: Inter, ui-sans-serif, -apple-system, BlinkMacSystemFont, "Segoe UI", Arial, sans-serif; }
      .title { font-size: 42px; font-weight: 800; fill: #0b1f4b; letter-spacing: -.6px; }
      .subtitle { font-size: 18px; font-weight: 600; fill: #52627a; }
      .section-title { font-size: 20px; font-weight: 800; fill: #16233c; }
      .column-title { font-size: 18px; font-weight: 800; fill: white; }
      .card-title { font-size: 16px; font-weight: 760; fill: #122039; }
      .card-sub { font-size: 12.5px; font-weight: 520; fill: #607089; }
      .small { font-size: 12px; font-weight: 650; fill: #52627a; }
      .tiny { font-size: 11px; font-weight: 650; fill: #64748b; }
      .request { stroke: #2563eb; stroke-width: 2.4; fill: none; marker-end: url(#arrowRequest); }
      .response { stroke: #64748b; stroke-width: 1.8; stroke-dasharray: 6 5; fill: none; marker-end: url(#arrowResponse); }
      .lane-divider { stroke: #e4eaf2; stroke-width: 1; }
    </style>
  </defs>

  <rect width="1920" height="1360" fill="url(#bg)"/>

  <text class="title" x="960" y="58" text-anchor="middle">ScanZapp AI Platform Architecture</text>
  <text class="subtitle" x="960" y="91" text-anchor="middle">Detailed Request / Response Lanes • Vercel + Supabase + Purpose-Specific AI Models</text>

  <!-- Access flow -->
  <rect x="38" y="124" width="1844" height="226" rx="22" fill="#ffffff" stroke="#dce5f1" stroke-width="1.5" filter="url(#shadow)"/>
  <text class="section-title" x="64" y="158">A. Client Access Flow</text>
  <text class="small" x="288" y="158">Both browser types enter the same responsive frontend application.</text>

  <!-- Access column headers -->
  <rect x="64" y="176" width="246" height="38" rx="10" fill="url(#blueHead)"/>
  <text class="column-title" x="187" y="202" text-anchor="middle">1. Users</text>
  <rect x="390" y="176" width="286" height="38" rx="10" fill="url(#blueHead)"/>
  <text class="column-title" x="533" y="202" text-anchor="middle">2. Client Access</text>
  <rect x="756" y="176" width="444" height="38" rx="10" fill="url(#greenHead)"/>
  <text class="column-title" x="978" y="202" text-anchor="middle">3. Frontend Web App</text>

  <!-- User cards -->
  <rect x="64" y="226" width="246" height="48" rx="12" fill="#eff6ff" stroke="#7db0ff"/>
  <circle cx="90" cy="250" r="14" fill="#2563eb"/>
  <text x="90" y="255" text-anchor="middle" font-size="13" font-weight="800" fill="#fff">W</text>
  <text class="card-title" x="116" y="255">Web User</text>
  <rect x="64" y="286" width="246" height="48" rx="12" fill="#eff6ff" stroke="#7db0ff"/>
  <circle cx="90" cy="310" r="14" fill="#2563eb"/>
  <text x="90" y="315" text-anchor="middle" font-size="13" font-weight="800" fill="#fff">M</text>
  <text class="card-title" x="116" y="315">Mobile User</text>

  <!-- Browser cards -->
  <rect x="390" y="226" width="286" height="48" rx="12" fill="#f5f9ff" stroke="#7db0ff"/>
  <circle cx="416" cy="250" r="14" fill="#174ea6"/>
  <text x="416" y="255" text-anchor="middle" font-size="12" font-weight="800" fill="#fff">WEB</text>
  <text class="card-title" x="442" y="255">Web Browser</text>
  <rect x="390" y="286" width="286" height="48" rx="12" fill="#f5f9ff" stroke="#7db0ff"/>
  <circle cx="416" cy="310" r="14" fill="#174ea6"/>
  <text x="416" y="315" text-anchor="middle" font-size="11" font-weight="800" fill="#fff">MOB</text>
  <text class="card-title" x="442" y="305">Mobile Browser</text>
  <text class="card-sub" x="442" y="322">Responsive UI</text>

  <!-- Frontend gateway -->
  <rect x="756" y="226" width="444" height="108" rx="15" fill="#f1fbf4" stroke="#22a755" stroke-width="1.5"/>
  <circle cx="792" cy="263" r="22" fill="#119447"/>
  <text x="792" y="270" text-anchor="middle" font-size="18" font-weight="850" fill="#fff">N</text>
  <text class="card-title" x="828" y="256">Next.js Responsive Web App</text>
  <text class="card-sub" x="828" y="276">One frontend shared by desktop and mobile browsers</text>
  <rect x="782" y="293" width="63" height="23" rx="11.5" fill="#dcfce7"/><text class="tiny" x="813.5" y="309" text-anchor="middle">Dashboard</text>
  <rect x="852" y="293" width="52" height="23" rx="11.5" fill="#dcfce7"/><text class="tiny" x="878" y="309" text-anchor="middle">Scan</text>
  <rect x="911" y="293" width="58" height="23" rx="11.5" fill="#dcfce7"/><text class="tiny" x="940" y="309" text-anchor="middle">History</text>
  <rect x="976" y="293" width="61" height="23" rx="11.5" fill="#dcfce7"/><text class="tiny" x="1006.5" y="309" text-anchor="middle">Insight</text>
  <rect x="1044" y="293" width="52" height="23" rx="11.5" fill="#dcfce7"/><text class="tiny" x="1070" y="309" text-anchor="middle">Profile</text>
  <rect x="1103" y="293" width="70" height="23" rx="11.5" fill="#dcfce7"/><text class="tiny" x="1138" y="309" text-anchor="middle">Chat + More</text>

  <!-- Access connectors, paired and non-crossing -->
  <path class="request" d="M310 244 H390"/>
  <path class="response" d="M390 258 H310"/>
  <path class="request" d="M310 304 H390"/>
  <path class="response" d="M390 318 H310"/>
  <path class="request" d="M676 244 H756"/>
  <path class="response" d="M756 258 H676"/>
  <path class="request" d="M676 304 H756"/>
  <path class="response" d="M756 318 H676"/>

  <!-- Runtime summary -->
  <rect x="1262" y="176" width="594" height="158" rx="16" fill="#f8f7ff" stroke="#bba6f6"/>
  <text class="card-title" x="1290" y="210">Runtime &amp; shared controls</text>
  <rect x="1290" y="226" width="154" height="40" rx="12" fill="#ede9fe"/>
  <text class="card-title" x="1367" y="251" text-anchor="middle">Vercel Runtime</text>
  <rect x="1456" y="226" width="150" height="40" rx="12" fill="#ede9fe"/>
  <text class="card-title" x="1531" y="251" text-anchor="middle">Rate Limit</text>
  <rect x="1618" y="226" width="210" height="40" rx="12" fill="#ede9fe"/>
  <text class="card-title" x="1723" y="251" text-anchor="middle">Session Guard</text>
  <text class="card-sub" x="1290" y="291">Protected API routes validate the session before business logic runs.</text>
  <text class="card-sub" x="1290" y="311">AI routes are throttled independently to control latency and usage.</text>

  <!-- Detailed mapping -->
  <text class="section-title" x="50" y="392">B. Feature-to-Service Mapping</text>
  <text class="small" x="322" y="392">Each row is an independent lane; no connector crosses another lane.</text>

  <!-- Column headers -->
  <rect x="50" y="410" width="300" height="46" rx="11" fill="url(#greenHead)"/>
  <text class="column-title" x="200" y="439" text-anchor="middle">Frontend Feature</text>
  <rect x="430" y="410" width="320" height="46" rx="11" fill="url(#orangeHead)"/>
  <text class="column-title" x="590" y="439" text-anchor="middle">Backend API</text>
  <rect x="830" y="410" width="330" height="46" rx="11" fill="url(#purpleHead)"/>
  <text class="column-title" x="995" y="439" text-anchor="middle">Core Service</text>
  <rect x="1240" y="410" width="630" height="46" rx="11" fill="url(#redHead)"/>
  <text class="column-title" x="1555" y="439" text-anchor="middle">Data / AI Destination</text>

  <!-- Lane backgrounds and dividers -->
  <rect x="38" y="468" width="1844" height="744" rx="20" fill="#ffffff" stroke="#e1e8f1" filter="url(#shadow)"/>
  <line class="lane-divider" x1="50" y1="560" x2="1870" y2="560"/>
  <line class="lane-divider" x1="50" y1="652" x2="1870" y2="652"/>
  <line class="lane-divider" x1="50" y1="744" x2="1870" y2="744"/>
  <line class="lane-divider" x1="50" y1="836" x2="1870" y2="836"/>
  <line class="lane-divider" x1="50" y1="928" x2="1870" y2="928"/>
  <line class="lane-divider" x1="50" y1="1020" x2="1870" y2="1020"/>
  <line class="lane-divider" x1="50" y1="1112" x2="1870" y2="1112"/>

  <!-- Shared database block, rows 1-5 -->
  <rect x="1240" y="484" width="630" height="428" rx="16" fill="#fff5f5" stroke="#ef4444" stroke-width="1.5"/>
  <circle cx="1280" cy="524" r="23" fill="#e52b37"/>
  <ellipse cx="1280" cy="517" rx="13" ry="5" fill="#fff"/>
  <path d="M1267 517v15c0 7 26 7 26 0v-15 M1267 525c0 7 26 7 26 0" fill="none" stroke="#fff" stroke-width="2"/>
  <text class="card-title" x="1316" y="517">Supabase PostgreSQL</text>
  <text class="card-sub" x="1316" y="538">Authoritative persistent database</text>
  <rect x="1316" y="558" width="120" height="25" rx="12.5" fill="#fee2e2"/><text class="tiny" x="1376" y="575" text-anchor="middle">users + sessions</text>
  <rect x="1444" y="558" width="118" height="25" rx="12.5" fill="#fee2e2"/><text class="tiny" x="1503" y="575" text-anchor="middle">meals + scans</text>
  <rect x="1570" y="558" width="110" height="25" rx="12.5" fill="#fee2e2"/><text class="tiny" x="1625" y="575" text-anchor="middle">water logs</text>
  <rect x="1688" y="558" width="142" height="25" rx="12.5" fill="#fee2e2"/><text class="tiny" x="1759" y="575" text-anchor="middle">profile + settings</text>
  <text class="card-sub" x="1316" y="616">The five data lanes enter the same database through separate ports.</text>
  <text class="card-sub" x="1316" y="640">Prisma ORM handles application data access; Session Guard handles identity.</text>

  <!-- Row 1 cards -->
  <rect x="50" y="479" width="300" height="70" rx="13" fill="#f1fbf4" stroke="#27a857"/>
  <circle cx="79" cy="514" r="17" fill="#119447"/><text x="79" y="520" text-anchor="middle" font-size="12" font-weight="850" fill="#fff">UI</text>
  <text class="card-title" x="108" y="507">Dashboard + Meal History</text>
  <text class="card-sub" x="108" y="529">read, create, update, delete meals</text>
  <rect x="430" y="479" width="320" height="70" rx="13" fill="#fff8f1" stroke="#f97316"/>
  <circle cx="459" cy="514" r="17" fill="#f2670a"/><text x="459" y="520" text-anchor="middle" font-size="12" font-weight="850" fill="#fff">API</text>
  <text class="card-title" x="488" y="507">Meals API</text><text class="card-sub" x="488" y="529">/api/meals</text>
  <rect x="830" y="479" width="330" height="70" rx="13" fill="#f8f5ff" stroke="#7c3aed"/>
  <circle cx="859" cy="514" r="17" fill="#6730bd"/><text x="859" y="520" text-anchor="middle" font-size="12" font-weight="850" fill="#fff">DB</text>
  <text class="card-title" x="888" y="507">Prisma ORM</text><text class="card-sub" x="888" y="529">meal persistence + query layer</text>

  <!-- Row 2 cards -->
  <rect x="50" y="571" width="300" height="70" rx="13" fill="#f1fbf4" stroke="#27a857"/>
  <circle cx="79" cy="606" r="17" fill="#119447"/><text x="79" y="612" text-anchor="middle" font-size="13" font-weight="850" fill="#fff">W</text>
  <text class="card-title" x="108" y="599">Water Tracker</text><text class="card-sub" x="108" y="621">daily hydration logs</text>
  <rect x="430" y="571" width="320" height="70" rx="13" fill="#fff8f1" stroke="#f97316"/>
  <circle cx="459" cy="606" r="17" fill="#f2670a"/><text x="459" y="612" text-anchor="middle" font-size="12" font-weight="850" fill="#fff">API</text>
  <text class="card-title" x="488" y="599">Water Logs API</text><text class="card-sub" x="488" y="621">/api/water-logs</text>
  <rect x="830" y="571" width="330" height="70" rx="13" fill="#f8f5ff" stroke="#7c3aed"/>
  <circle cx="859" cy="606" r="17" fill="#6730bd"/><text x="859" y="612" text-anchor="middle" font-size="12" font-weight="850" fill="#fff">DB</text>
  <text class="card-title" x="888" y="599">Prisma ORM</text><text class="card-sub" x="888" y="621">hydration data access</text>

  <!-- Row 3 cards -->
  <rect x="50" y="663" width="300" height="70" rx="13" fill="#f1fbf4" stroke="#27a857"/>
  <circle cx="79" cy="698" r="17" fill="#119447"/><text x="79" y="704" text-anchor="middle" font-size="13" font-weight="850" fill="#fff">P</text>
  <text class="card-title" x="108" y="691">Profile</text><text class="card-sub" x="108" y="713">personal and health information</text>
  <rect x="430" y="663" width="320" height="70" rx="13" fill="#fff8f1" stroke="#f97316"/>
  <circle cx="459" cy="698" r="17" fill="#f2670a"/><text x="459" y="704" text-anchor="middle" font-size="12" font-weight="850" fill="#fff">API</text>
  <text class="card-title" x="488" y="691">Profile API</text><text class="card-sub" x="488" y="713">/api/profile</text>
  <rect x="830" y="663" width="330" height="70" rx="13" fill="#f8f5ff" stroke="#7c3aed"/>
  <circle cx="859" cy="698" r="17" fill="#6730bd"/><text x="859" y="704" text-anchor="middle" font-size="11" font-weight="850" fill="#fff">SG</text>
  <text class="card-title" x="888" y="691">Session Guard + Prisma</text><text class="card-sub" x="888" y="713">authorize, then persist profile</text>

  <!-- Row 4 cards -->
  <rect x="50" y="755" width="300" height="70" rx="13" fill="#f1fbf4" stroke="#27a857"/>
  <circle cx="79" cy="790" r="17" fill="#119447"/><text x="79" y="796" text-anchor="middle" font-size="13" font-weight="850" fill="#fff">S</text>
  <text class="card-title" x="108" y="783">Settings</text><text class="card-sub" x="108" y="805">application preferences</text>
  <rect x="430" y="755" width="320" height="70" rx="13" fill="#fff8f1" stroke="#f97316"/>
  <circle cx="459" cy="790" r="17" fill="#f2670a"/><text x="459" y="796" text-anchor="middle" font-size="12" font-weight="850" fill="#fff">API</text>
  <text class="card-title" x="488" y="783">Settings API</text><text class="card-sub" x="488" y="805">/api/settings</text>
  <rect x="830" y="755" width="330" height="70" rx="13" fill="#f8f5ff" stroke="#7c3aed"/>
  <circle cx="859" cy="790" r="17" fill="#6730bd"/><text x="859" y="796" text-anchor="middle" font-size="11" font-weight="850" fill="#fff">SG</text>
  <text class="card-title" x="888" y="783">Session Guard + Prisma</text><text class="card-sub" x="888" y="805">authorize, then save settings</text>

  <!-- Row 5 cards -->
  <rect x="50" y="847" width="300" height="70" rx="13" fill="#f1fbf4" stroke="#27a857"/>
  <circle cx="79" cy="882" r="17" fill="#119447"/><text x="79" y="888" text-anchor="middle" font-size="12" font-weight="850" fill="#fff">ID</text>
  <text class="card-title" x="108" y="875">Authentication</text><text class="card-sub" x="108" y="897">sign in, sign up, sign out</text>
  <rect x="430" y="847" width="320" height="70" rx="13" fill="#fff8f1" stroke="#f97316"/>
  <circle cx="459" cy="882" r="17" fill="#f2670a"/><text x="459" y="888" text-anchor="middle" font-size="12" font-weight="850" fill="#fff">API</text>
  <text class="card-title" x="488" y="875">Auth / Session API</text><text class="card-sub" x="488" y="897">/api/auth/*</text>
  <rect x="830" y="847" width="330" height="70" rx="13" fill="#f8f5ff" stroke="#7c3aed"/>
  <circle cx="859" cy="882" r="17" fill="#6730bd"/><text x="859" y="888" text-anchor="middle" font-size="11" font-weight="850" fill="#fff">SG</text>
  <text class="card-title" x="888" y="875">Session Guard + Prisma</text><text class="card-sub" x="888" y="897">session lifecycle + user record</text>

  <!-- Row 6 cards and AI destination -->
  <rect x="50" y="939" width="300" height="70" rx="13" fill="#f1fbf4" stroke="#27a857"/>
  <circle cx="79" cy="974" r="17" fill="#119447"/><text x="79" y="980" text-anchor="middle" font-size="11" font-weight="850" fill="#fff">CAM</text>
  <text class="card-title" x="108" y="967">Scan Food</text><text class="card-sub" x="108" y="989">food image analysis</text>
  <rect x="430" y="939" width="320" height="70" rx="13" fill="#fff8f1" stroke="#f97316"/>
  <circle cx="459" cy="974" r="17" fill="#f2670a"/><text x="459" y="980" text-anchor="middle" font-size="12" font-weight="850" fill="#fff">API</text>
  <text class="card-title" x="488" y="967">Scan API</text><text class="card-sub" x="488" y="989">/api/scan-food</text>
  <rect x="830" y="939" width="330" height="70" rx="13" fill="#f8f5ff" stroke="#7c3aed"/>
  <circle cx="859" cy="974" r="17" fill="#6730bd"/><text x="859" y="980" text-anchor="middle" font-size="11" font-weight="850" fill="#fff">AI</text>
  <text class="card-title" x="888" y="967">Food Analysis Service</text><text class="card-sub" x="888" y="989">vision prompt + JSON validation</text>
  <rect x="1240" y="939" width="630" height="70" rx="13" fill="#f0fbff" stroke="#0ea5c6" stroke-width="1.5"/>
  <circle cx="1274" cy="974" r="18" fill="#0795b9"/><text x="1274" y="980" text-anchor="middle" font-size="11" font-weight="850" fill="#fff">AI</text>
  <text class="card-title" x="1304" y="967">Food Analysis</text>
  <text x="1840" y="979" text-anchor="end" font-size="17" font-weight="800" fill="#087fa8">qwen/qwen3.7-plus</text>
  <text class="card-sub" x="1304" y="989">image → nutrition result</text>

  <!-- Row 7 cards and AI destination -->
  <rect x="50" y="1031" width="300" height="70" rx="13" fill="#f1fbf4" stroke="#27a857"/>
  <circle cx="79" cy="1066" r="17" fill="#119447"/><text x="79" y="1072" text-anchor="middle" font-size="11" font-weight="850" fill="#fff">HI</text>
  <text class="card-title" x="108" y="1059">Health Insight</text><text class="card-sub" x="108" y="1081">next-meal recommendation</text>
  <rect x="430" y="1031" width="320" height="70" rx="13" fill="#fff8f1" stroke="#f97316"/>
  <circle cx="459" cy="1066" r="17" fill="#f2670a"/><text x="459" y="1072" text-anchor="middle" font-size="12" font-weight="850" fill="#fff">API</text>
  <text class="card-title" x="488" y="1059">Meal Suggestions API</text><text class="card-sub" x="488" y="1081">/api/meal-suggestions</text>
  <rect x="830" y="1031" width="330" height="70" rx="13" fill="#f8f5ff" stroke="#7c3aed"/>
  <circle cx="859" cy="1066" r="17" fill="#6730bd"/><text x="859" y="1072" text-anchor="middle" font-size="11" font-weight="850" fill="#fff">CTX</text>
  <text class="card-title" x="888" y="1059">Context Builder</text><text class="card-sub" x="888" y="1081">meal history + health targets</text>
  <rect x="1240" y="1031" width="630" height="70" rx="13" fill="#f0fbff" stroke="#0ea5c6" stroke-width="1.5"/>
  <circle cx="1274" cy="1066" r="18" fill="#0795b9"/><text x="1274" y="1072" text-anchor="middle" font-size="11" font-weight="850" fill="#fff">AI</text>
  <text class="card-title" x="1304" y="1059">Next Meal Suggestions</text>
  <text x="1840" y="1071" text-anchor="end" font-size="17" font-weight="800" fill="#087fa8">qwen/qwen3.6-flash</text>
  <text class="card-sub" x="1304" y="1081">fast recommendation generation</text>

  <!-- Row 8 cards and AI destination -->
  <rect x="50" y="1123" width="300" height="70" rx="13" fill="#f1fbf4" stroke="#27a857"/>
  <circle cx="79" cy="1158" r="17" fill="#119447"/><text x="79" y="1164" text-anchor="middle" font-size="11" font-weight="850" fill="#fff">CHAT</text>
  <text class="card-title" x="108" y="1151">Chat</text><text class="card-sub" x="108" y="1173">nutrition assistant conversation</text>
  <rect x="430" y="1123" width="320" height="70" rx="13" fill="#fff8f1" stroke="#f97316"/>
  <circle cx="459" cy="1158" r="17" fill="#f2670a"/><text x="459" y="1164" text-anchor="middle" font-size="12" font-weight="850" fill="#fff">API</text>
  <text class="card-title" x="488" y="1151">Chat API</text><text class="card-sub" x="488" y="1173">/api/chat</text>
  <rect x="830" y="1123" width="330" height="70" rx="13" fill="#f8f5ff" stroke="#7c3aed"/>
  <circle cx="859" cy="1158" r="17" fill="#6730bd"/><text x="859" y="1164" text-anchor="middle" font-size="11" font-weight="850" fill="#fff">CTX</text>
  <text class="card-title" x="888" y="1151">Context Builder</text><text class="card-sub" x="888" y="1173">profile + conversation context</text>
  <rect x="1240" y="1123" width="630" height="70" rx="13" fill="#f0fbff" stroke="#0ea5c6" stroke-width="1.5"/>
  <circle cx="1274" cy="1158" r="18" fill="#0795b9"/><text x="1274" y="1164" text-anchor="middle" font-size="11" font-weight="850" fill="#fff">AI</text>
  <text class="card-title" x="1304" y="1151">Chatbot</text>
  <text x="1840" y="1163" text-anchor="end" font-size="17" font-weight="800" fill="#087fa8">openai/gpt-4o-mini</text>
  <text class="card-sub" x="1304" y="1173">streamed conversational response</text>

  <!-- Paired lane connectors: Feature -> API -->
  <path class="request" d="M350 507 H430"/><path class="response" d="M430 521 H350"/>
  <path class="request" d="M350 599 H430"/><path class="response" d="M430 613 H350"/>
  <path class="request" d="M350 691 H430"/><path class="response" d="M430 705 H350"/>
  <path class="request" d="M350 783 H430"/><path class="response" d="M430 797 H350"/>
  <path class="request" d="M350 875 H430"/><path class="response" d="M430 889 H350"/>
  <path class="request" d="M350 967 H430"/><path class="response" d="M430 981 H350"/>
  <path class="request" d="M350 1059 H430"/><path class="response" d="M430 1073 H350"/>
  <path class="request" d="M350 1151 H430"/><path class="response" d="M430 1165 H350"/>

  <!-- Paired lane connectors: API -> Core -->
  <path class="request" d="M750 507 H830"/><path class="response" d="M830 521 H750"/>
  <path class="request" d="M750 599 H830"/><path class="response" d="M830 613 H750"/>
  <path class="request" d="M750 691 H830"/><path class="response" d="M830 705 H750"/>
  <path class="request" d="M750 783 H830"/><path class="response" d="M830 797 H750"/>
  <path class="request" d="M750 875 H830"/><path class="response" d="M830 889 H750"/>
  <path class="request" d="M750 967 H830"/><path class="response" d="M830 981 H750"/>
  <path class="request" d="M750 1059 H830"/><path class="response" d="M830 1073 H750"/>
  <path class="request" d="M750 1151 H830"/><path class="response" d="M830 1165 H750"/>

  <!-- Paired lane connectors: Core -> Destination -->
  <path class="request" d="M1160 507 H1240"/><path class="response" d="M1240 521 H1160"/>
  <path class="request" d="M1160 599 H1240"/><path class="response" d="M1240 613 H1160"/>
  <path class="request" d="M1160 691 H1240"/><path class="response" d="M1240 705 H1160"/>
  <path class="request" d="M1160 783 H1240"/><path class="response" d="M1240 797 H1160"/>
  <path class="request" d="M1160 875 H1240"/><path class="response" d="M1240 889 H1160"/>
  <path class="request" d="M1160 967 H1240"/><path class="response" d="M1240 981 H1160"/>
  <path class="request" d="M1160 1059 H1240"/><path class="response" d="M1240 1073 H1160"/>
  <path class="request" d="M1160 1151 H1240"/><path class="response" d="M1240 1165 H1160"/>

  <!-- Legend and notes -->
  <rect x="38" y="1236" width="1844" height="86" rx="18" fill="#ffffff" stroke="#dce5f1"/>
  <path class="request" d="M76 1267 H142"/>
  <text class="card-title" x="158" y="1273">Request</text>
  <text class="card-sub" x="158" y="1294">solid blue • left to right</text>
  <path class="response" d="M390 1267 H324"/>
  <text class="card-title" x="408" y="1273">Response</text>
  <text class="card-sub" x="408" y="1294">gray dashed • right to left</text>
  <rect x="662" y="1253" width="18" height="18" rx="5" fill="#16a34a"/><text class="small" x="691" y="1267">Frontend</text>
  <rect x="784" y="1253" width="18" height="18" rx="5" fill="#f97316"/><text class="small" x="813" y="1267">Backend API</text>
  <rect x="938" y="1253" width="18" height="18" rx="5" fill="#7c3aed"/><text class="small" x="967" y="1267">Core Service</text>
  <rect x="1107" y="1253" width="18" height="18" rx="5" fill="#ef4444"/><text class="small" x="1136" y="1267">Database</text>
  <rect x="1236" y="1253" width="18" height="18" rx="5" fill="#0ea5c6"/><text class="small" x="1265" y="1267">External AI</text>
  <text class="small" x="662" y="1295">Only Scan, Meal Suggestions, and Chat call AI models. All other lanes terminate at PostgreSQL.</text>
  <text class="small" x="1845" y="1270" text-anchor="end">Source: ScanZapp AI codebase</text>
  <text class="tiny" x="1845" y="1294" text-anchor="end">Model routing verified from application configuration</text>
</svg>
